<svg width="170" height="41" viewBox="0 0 170 41" fill="none" xmlns="http://www.w3.org/2000/svg">
<g clip-path="url(#clip0_1_1736)">
<path d="M51.8599 28.138H63.8119V24.538H56.1079V10.978H51.8599V28.138Z" fill="#82868E"/>
<path d="M70.8933 25.7379C69.1893 25.7379 68.3013 24.2499 68.3013 22.0179C68.3013 19.7859 69.1893 18.2739 70.8933 18.2739C72.5973 18.2739 73.5093 19.7859 73.5093 22.0179C73.5093 24.2499 72.5973 25.7379 70.8933 25.7379ZM70.9173 28.5219C74.8773 28.5219 77.4693 25.7139 77.4693 22.0179C77.4693 18.3219 74.8773 15.5139 70.9173 15.5139C66.9813 15.5139 64.3413 18.3219 64.3413 22.0179C64.3413 25.7139 66.9813 28.5219 70.9173 28.5219Z" fill="#82868E"/>
<path d="M84.3236 32.386C86.1476 32.386 87.7556 31.978 88.8356 31.018C89.8196 30.13 90.4676 28.786 90.4676 26.938V15.85H86.7236V17.17H86.6756C85.9556 16.138 84.8516 15.49 83.2196 15.49C80.1716 15.49 78.0596 18.034 78.0596 21.634C78.0596 25.402 80.6276 27.466 83.3876 27.466C84.8756 27.466 85.8116 26.866 86.5316 26.05H86.6276V27.274C86.6276 28.762 85.9316 29.626 84.2756 29.626C82.9796 29.626 82.3316 29.074 82.1156 28.426H78.3236C78.7076 30.994 80.9396 32.386 84.3236 32.386ZM84.2996 24.562C82.8356 24.562 81.8756 23.362 81.8756 21.514C81.8756 19.642 82.8356 18.442 84.2996 18.442C85.9316 18.442 86.7956 19.834 86.7956 21.49C86.7956 23.218 86.0036 24.562 84.2996 24.562Z" fill="#82868E"/>
<path d="M98.1658 25.7379C96.4618 25.7379 95.5738 24.2499 95.5738 22.0179C95.5738 19.7859 96.4618 18.2739 98.1658 18.2739C99.8698 18.2739 100.782 19.7859 100.782 22.0179C100.782 24.2499 99.8698 25.7379 98.1658 25.7379ZM98.1898 28.5219C102.15 28.5219 104.742 25.7139 104.742 22.0179C104.742 18.3219 102.15 15.5139 98.1898 15.5139C94.2538 15.5139 91.6138 18.3219 91.6138 22.0179C91.6138 25.7139 94.2538 28.5219 98.1898 28.5219Z" fill="#82868E"/>
<path d="M105.884 28.138H109.796V15.85H105.884V28.138ZM105.884 14.146H109.796V10.978H105.884V14.146Z" fill="#82868E"/>
<path d="M111.494 32.194H115.406V26.866H115.454C116.222 27.898 117.35 28.522 118.934 28.522C122.15 28.522 124.286 25.978 124.286 21.994C124.286 18.298 122.294 15.49 119.03 15.49C117.35 15.49 116.15 16.234 115.31 17.338H115.238V15.85H111.494V32.194ZM117.926 25.498C116.246 25.498 115.286 24.13 115.286 22.138C115.286 20.146 116.15 18.634 117.854 18.634C119.534 18.634 120.326 20.026 120.326 22.138C120.326 24.226 119.414 25.498 117.926 25.498Z" fill="#82868E"/>
<path d="M130.655 28.522C133.871 28.522 136.247 27.13 136.247 24.442C136.247 21.298 133.703 20.746 131.543 20.386C129.983 20.098 128.591 19.978 128.591 19.114C128.591 18.346 129.335 17.986 130.295 17.986C131.375 17.986 132.119 18.322 132.263 19.426H135.863C135.671 17.002 133.799 15.49 130.319 15.49C127.415 15.49 125.015 16.834 125.015 19.426C125.015 22.306 127.295 22.882 129.431 23.242C131.063 23.53 132.551 23.65 132.551 24.754C132.551 25.546 131.807 25.978 130.631 25.978C129.335 25.978 128.519 25.378 128.375 24.154H124.679C124.799 26.866 127.055 28.522 130.655 28.522Z" fill="#82868E"/>
<path d="M141.561 28.4981C143.265 28.4981 144.345 27.8261 145.233 26.6261H145.305V28.1381H149.049V15.8501H145.137V22.7141C145.137 24.1781 144.321 25.1861 142.977 25.1861C141.729 25.1861 141.129 24.4421 141.129 23.0981V15.8501H137.241V23.9141C137.241 26.6501 138.729 28.4981 141.561 28.4981Z" fill="#82868E"/>
<path d="M150.75 28.138H154.662V21.25C154.662 19.786 155.382 18.754 156.606 18.754C157.782 18.754 158.334 19.522 158.334 20.842V28.138H162.246V21.25C162.246 19.786 162.942 18.754 164.19 18.754C165.366 18.754 165.918 19.522 165.918 20.842V28.138H169.83V20.146C169.83 17.386 168.438 15.49 165.654 15.49C164.07 15.49 162.75 16.162 161.79 17.65H161.742C161.118 16.33 159.894 15.49 158.286 15.49C156.51 15.49 155.334 16.33 154.566 17.602H154.494V15.85H150.75V28.138Z" fill="#82868E"/>
<path fill-rule="evenodd" clip-rule="evenodd" d="M20.6836 40.1379C31.7293 40.1379 40.6836 31.1836 40.6836 20.1379C40.6836 9.09225 31.7293 0.137939 20.6836 0.137939C9.63788 0.137939 0.683594 9.09225 0.683594 20.1379C0.683594 31.1836 9.63788 40.1379 20.6836 40.1379ZM26.9229 9.45478C27.2266 8.37599 26.1797 7.73807 25.2236 8.41924L11.8767 17.9275C10.8398 18.6662 11.0029 20.1379 12.1217 20.1379H15.6363V20.1107H22.4861L16.9048 22.08L14.4443 30.8211C14.1406 31.8999 15.1874 32.5378 16.1436 31.8566L29.4905 22.3484C30.5274 21.6097 30.3642 20.1379 29.2455 20.1379H23.9157L26.9229 9.45478Z" fill="#82868E"/>
</g>
<defs>
<clipPath id="clip0_1_1736">
<rect width="170" height="41" fill="white"/>
</clipPath>
</defs>
</svg>
